PathFileType	4	(X/Y/Z)	C:\Users\italobelli\Desktop\GitHub\PTbot_officialCBL\Personal_Results\SHRUG23_noisy1.trc
DataRate	CameraRate	NumFrames	NumMarkers	Units	OrigDataRate	OrigDataStartFrame	OrigNumFrames
108.909091	108.909091	25	9	m	108.909091	226	600
Frame#	Time		gu		centelbow		EpL		centpxt8		centijc7		ij		ts		aa		ai
			X1	Y1	Z1	X2	Y2	Z2	X3	Y3	Z3	X4	Y4	Z4	X5	Y5	Z5	X6	Y6	Z6	X7	Y7	Z7	X8	Y8	Z8	X9	Y9	Z9

226	2.0659	-0.11043	0.03355	0.14165	-0.093665	-0.1996	0.19964	-0.087911	-0.18925	0.22957	-0.046816	-0.15316	-0.008669	-0.046816	0.031938	-0.008669	0	0	0	-0.12094	0.037662	0.0093423	-0.14247	0.06303	0.12385	-0.12727	-0.07201	0.038053
227	2.0751	-0.11043	0.03351	0.14169	-0.093895	-0.19973	0.19954	-0.08814	-0.18939	0.22947	-0.046816	-0.15316	-0.008669	-0.046816	0.031938	-0.008669	0	0	0	-0.12094	0.037654	0.0092977	-0.14248	0.062982	0.12381	-0.12728	-0.072027	0.037982
228	2.0843	-0.11043	0.033469	0.14173	-0.094126	-0.19986	0.19944	-0.088371	-0.18954	0.22937	-0.046816	-0.15316	-0.008669	-0.046816	0.031938	-0.008669	0	0	0	-0.12095	0.037646	0.0092537	-0.14249	0.062933	0.12377	-0.12729	-0.072044	0.037909
229	2.0935	-0.11043	0.033427	0.14178	-0.09436	-0.2	0.19934	-0.088605	-0.18969	0.22927	-0.046816	-0.15316	-0.008669	-0.046816	0.031938	-0.008669	0	0	0	-0.12095	0.037638	0.0092103	-0.14251	0.062882	0.12373	-0.1273	-0.072061	0.037832
230	2.1027	-0.11042	0.033383	0.14183	-0.094596	-0.20014	0.19923	-0.088842	-0.18984	0.22916	-0.046816	-0.15316	-0.008669	-0.046816	0.031938	-0.008669	0	0	0	-0.12096	0.03763	0.0091674	-0.14252	0.06283	0.12369	-0.12731	-0.072078	0.037753
231	2.1119	-0.11042	0.033337	0.14188	-0.094835	-0.20028	0.19913	-0.089082	-0.18999	0.22906	-0.046816	-0.15316	-0.008669	-0.046816	0.031938	-0.008669	0	0	0	-0.12096	0.037623	0.0091251	-0.14253	0.062776	0.12366	-0.12732	-0.072096	0.03767
232	2.121	-0.11042	0.03329	0.14194	-0.095074	-0.20043	0.19902	-0.089324	-0.19015	0.22895	-0.046816	-0.15316	-0.008669	-0.046816	0.031938	-0.008669	0	0	0	-0.12096	0.037616	0.0090833	-0.14255	0.062722	0.12362	-0.12734	-0.072114	0.037586
233	2.1302	-0.11042	0.033241	0.142	-0.095316	-0.20059	0.19891	-0.089568	-0.19032	0.22884	-0.046816	-0.15316	-0.008669	-0.046816	0.031938	-0.008669	0	0	0	-0.12097	0.037609	0.0090422	-0.14256	0.062666	0.12359	-0.12735	-0.072132	0.037498
234	2.1394	-0.11042	0.033191	0.14206	-0.095559	-0.20074	0.19879	-0.089814	-0.19048	0.22873	-0.046816	-0.15316	-0.008669	-0.046816	0.031938	-0.008669	0	0	0	-0.12097	0.037602	0.0090016	-0.14258	0.06261	0.12355	-0.12736	-0.07215	0.037409
235	2.1486	-0.11042	0.03314	0.14212	-0.095804	-0.20091	0.19868	-0.090062	-0.19065	0.22862	-0.046816	-0.15316	-0.008669	-0.046816	0.031938	-0.008669	0	0	0	-0.12097	0.037596	0.0089616	-0.14259	0.062552	0.12352	-0.12737	-0.072169	0.037317
236	2.1578	-0.11042	0.033087	0.14218	-0.09605	-0.20107	0.19856	-0.090311	-0.19082	0.2285	-0.046816	-0.15316	-0.008669	-0.046816	0.031938	-0.008669	0	0	0	-0.12098	0.037589	0.0089223	-0.14261	0.062493	0.12349	-0.12738	-0.072187	0.037223
237	2.1669	-0.11043	0.033033	0.14225	-0.096297	-0.20124	0.19845	-0.090562	-0.19099	0.22839	-0.046816	-0.15316	-0.008669	-0.046816	0.031938	-0.008669	0	0	0	-0.12098	0.037583	0.0088835	-0.14262	0.062433	0.12346	-0.12739	-0.072206	0.037128
238	2.1761	-0.11043	0.032978	0.14232	-0.096545	-0.20141	0.19833	-0.090814	-0.19117	0.22827	-0.046816	-0.15316	-0.008669	-0.046816	0.031938	-0.008669	0	0	0	-0.12099	0.037577	0.0088453	-0.14263	0.062372	0.12343	-0.1274	-0.072226	0.037031
239	2.1853	-0.11043	0.032922	0.14238	-0.096793	-0.20158	0.19821	-0.091068	-0.19135	0.22816	-0.046816	-0.15316	-0.008669	-0.046816	0.031938	-0.008669	0	0	0	-0.12099	0.037571	0.0088078	-0.14265	0.062311	0.1234	-0.12742	-0.072245	0.036932
240	2.1945	-0.11043	0.032865	0.14245	-0.097043	-0.20176	0.19809	-0.091322	-0.19153	0.22804	-0.046816	-0.15316	-0.008669	-0.046816	0.031938	-0.008669	0	0	0	-0.121	0.037565	0.0087708	-0.14266	0.062248	0.12337	-0.12743	-0.072264	0.036831
241	2.2037	-0.11043	0.032807	0.14253	-0.097293	-0.20193	0.19797	-0.091576	-0.19171	0.22792	-0.046816	-0.15316	-0.008669	-0.046816	0.031938	-0.008669	0	0	0	-0.121	0.03756	0.0087346	-0.14268	0.062185	0.12334	-0.12744	-0.072284	0.03673
242	2.2129	-0.11043	0.032748	0.1426	-0.097544	-0.20211	0.19784	-0.091832	-0.19189	0.2278	-0.046816	-0.15316	-0.008669	-0.046816	0.031938	-0.008669	0	0	0	-0.121	0.037555	0.0086989	-0.14269	0.06212	0.12332	-0.12745	-0.072304	0.036627
243	2.222	-0.11043	0.032687	0.14267	-0.097795	-0.2023	0.19772	-0.092087	-0.19208	0.22768	-0.046816	-0.15316	-0.008669	-0.046816	0.031938	-0.008669	0	0	0	-0.12101	0.037549	0.0086639	-0.14271	0.062056	0.12329	-0.12746	-0.072323	0.036523
244	2.2312	-0.11043	0.032626	0.14275	-0.098046	-0.20248	0.19759	-0.092343	-0.19226	0.22756	-0.046816	-0.15316	-0.008669	-0.046816	0.031938	-0.008669	0	0	0	-0.12101	0.037544	0.0086295	-0.14272	0.06199	0.12327	-0.12747	-0.072343	0.036419
245	2.2404	-0.11043	0.032565	0.14282	-0.098298	-0.20267	0.19747	-0.092598	-0.19245	0.22743	-0.046816	-0.15316	-0.008669	-0.046816	0.031938	-0.008669	0	0	0	-0.12102	0.037539	0.0085958	-0.14273	0.061924	0.12324	-0.12749	-0.072363	0.036313
246	2.2496	-0.11044	0.032502	0.1429	-0.098549	-0.20286	0.19734	-0.092854	-0.19264	0.22731	-0.046816	-0.15316	-0.008669	-0.046816	0.031938	-0.008669	0	0	0	-0.12102	0.037535	0.0085627	-0.14275	0.061857	0.12322	-0.1275	-0.072383	0.036208
247	2.2588	-0.11044	0.032439	0.14298	-0.0988	-0.20305	0.19722	-0.093108	-0.19283	0.22719	-0.046816	-0.15316	-0.008669	-0.046816	0.031938	-0.008669	0	0	0	-0.12103	0.03753	0.0085303	-0.14276	0.061789	0.1232	-0.12751	-0.072404	0.036101
248	2.2679	-0.11044	0.032375	0.14305	-0.099051	-0.20324	0.19709	-0.093363	-0.19303	0.22706	-0.046816	-0.15316	-0.008669	-0.046816	0.031938	-0.008669	0	0	0	-0.12103	0.037526	0.0084986	-0.14278	0.061721	0.12318	-0.12752	-0.072424	0.035995
249	2.2771	-0.11044	0.03231	0.14313	-0.099301	-0.20343	0.19696	-0.093616	-0.19322	0.22694	-0.046816	-0.15316	-0.008669	-0.046816	0.031938	-0.008669	0	0	0	-0.12104	0.037522	0.0084675	-0.14279	0.061653	0.12316	-0.12753	-0.072444	0.035888
250	2.2863	-0.11044	0.032245	0.14321	-0.099551	-0.20362	0.19683	-0.093869	-0.19341	0.22681	-0.046816	-0.15316	-0.008669	-0.046816	0.031938	-0.008669	0	0	0	-0.12104	0.037517	0.0084372	-0.14281	0.061584	0.12314	-0.12755	-0.072464	0.035781
